<svg id="my-svg" width="100%" xmlns="http://www.w3.org/2000/svg" xmlns:xlink="http://www.w3.org/1999/xlink" class="flowchart" style="max-width: 1632.12px; background-color: white;" viewBox="0 0 1632.125 1233.7391357421875" role="graphics-document document" aria-roledescription="flowchart-v2"><style>#my-svg{font-family:"trebuchet ms",verdana,arial,sans-serif;font-size:16px;fill:#333;}@keyframes edge-animation-frame{from{stroke-dashoffset:0;}}@keyframes dash{to{stroke-dashoffset:0;}}#my-svg .edge-animation-slow{stroke-dasharray:9,5!important;stroke-dashoffset:900;animation:dash 50s linear infinite;stroke-linecap:round;}#my-svg .edge-animation-fast{stroke-dasharray:9,5!important;stroke-dashoffset:900;animation:dash 20s linear infinite;stroke-linecap:round;}#my-svg .error-icon{fill:#552222;}#my-svg .error-text{fill:#552222;stroke:#552222;}#my-svg .edge-thickness-normal{stroke-width:1px;}#my-svg .edge-thickness-thick{stroke-width:3.5px;}#my-svg .edge-pattern-solid{stroke-dasharray:0;}#my-svg .edge-thickness-invisible{stroke-width:0;fill:none;}#my-svg .edge-pattern-dashed{stroke-dasharray:3;}#my-svg .edge-pattern-dotted{stroke-dasharray:2;}#my-svg .marker{fill:#333333;stroke:#333333;}#my-svg .marker.cross{stroke:#333333;}#my-svg svg{font-family:"trebuchet ms",verdana,arial,sans-serif;font-size:16px;}#my-svg p{margin:0;}#my-svg .label{font-family:"trebuchet ms",verdana,arial,sans-serif;color:#333;}#my-svg .cluster-label text{fill:#333;}#my-svg .cluster-label span{color:#333;}#my-svg .cluster-label span p{background-color:transparent;}#my-svg .label text,#my-svg span{fill:#333;color:#333;}#my-svg .node rect,#my-svg .node circle,#my-svg .node ellipse,#my-svg .node polygon,#my-svg .node path{fill:#ECECFF;stroke:#9370DB;stroke-width:1px;}#my-svg .rough-node .label text,#my-svg .node .label text,#my-svg .image-shape .label,#my-svg .icon-shape .label{text-anchor:middle;}#my-svg .node .katex path{fill:#000;stroke:#000;stroke-width:1px;}#my-svg .rough-node .label,#my-svg .node .label,#my-svg .image-shape .label,#my-svg .icon-shape .label{text-align:center;}#my-svg .node.clickable{cursor:pointer;}#my-svg .root .anchor path{fill:#333333!important;stroke-width:0;stroke:#333333;}#my-svg .arrowheadPath{fill:#333333;}#my-svg .edgePaths .path{stroke:#333333;stroke-width:1px;}#my-svg .flowchart-link{stroke:#333333;fill:none;}#my-svg .edgeLabel{background-color:rgba(232,232,232, 0.8);text-align:center;}#my-svg .edgeLabel p{background-color:rgba(232,232,232, 0.8);}#my-svg .edgeLabel rect{opacity:0.5;background-color:rgba(232,232,232, 0.8);fill:rgba(232,232,232, 0.8);}#my-svg .labelBkg{background-color:rgba(232, 232, 232, 0.5);}#my-svg .cluster rect{fill:#ffffde;stroke:#aaaa33;stroke-width:1px;}#my-svg .cluster text{fill:#333;}#my-svg .cluster span{color:#333;}#my-svg .node .collapsed-indicator{fill:#aaaa33;stroke:none;opacity:0.6;}#my-svg .node .collapsed-separator{stroke:#aaaa33;stroke-width:0.75px;}#my-svg div.mermaidTooltip{position:absolute;text-align:center;max-width:200px;padding:2px;font-family:"trebuchet ms",verdana,arial,sans-serif;font-size:12px;background:hsl(80, 100%, 96.2745098039%);border:1px solid #aaaa33;border-radius:2px;pointer-events:none;z-index:100;}#my-svg .flowchartTitleText{text-anchor:middle;font-size:18px;fill:#333;}#my-svg rect.text{fill:none;stroke-width:0;}#my-svg .icon-shape,#my-svg .image-shape{background-color:rgba(232,232,232, 0.8);text-align:center;}#my-svg .icon-shape p,#my-svg .image-shape p{background-color:rgba(232,232,232, 0.8);padding:2px;}#my-svg .icon-shape .label rect,#my-svg .image-shape .label rect{opacity:0.5;background-color:rgba(232,232,232, 0.8);fill:rgba(232,232,232, 0.8);}#my-svg .label-icon{display:inline-block;height:1em;overflow:visible;vertical-align:-0.125em;}#my-svg .node .label-icon path{fill:currentColor;stroke:revert;stroke-width:revert;}#my-svg .node .neo-node{stroke:#9370DB;}#my-svg [data-look="neo"].node rect,#my-svg [data-look="neo"].cluster rect,#my-svg [data-look="neo"].node polygon{stroke:#9370DB;filter:drop-shadow(1px 2px 2px rgba(185, 185, 185, 1));}#my-svg [data-look="neo"].swimlane.cluster rect{filter:none;}#my-svg [data-look="neo"].node path{stroke:#9370DB;stroke-width:1px;}#my-svg [data-look="neo"].node .outer-path{filter:drop-shadow(1px 2px 2px rgba(185, 185, 185, 1));}#my-svg [data-look="neo"].node .neo-line path{stroke:#9370DB;filter:none;}#my-svg [data-look="neo"].node circle{stroke:#9370DB;filter:drop-shadow(1px 2px 2px rgba(185, 185, 185, 1));}#my-svg [data-look="neo"].node circle .state-start{fill:#000000;}#my-svg [data-look="neo"].icon-shape .icon{fill:#9370DB;filter:drop-shadow(1px 2px 2px rgba(185, 185, 185, 1));}#my-svg [data-look="neo"].icon-shape .icon-neo path{stroke:#9370DB;filter:drop-shadow(1px 2px 2px rgba(185, 185, 185, 1));}#my-svg :root{--mermaid-font-family:"trebuchet ms",verdana,arial,sans-serif;}</style><g><marker id="my-svg_flowchart-v2-pointEnd" class="marker flowchart-v2" viewBox="0 0 10 10" refX="5" refY="5" markerUnits="userSpaceOnUse" markerWidth="8" markerHeight="8" orient="auto"><path d="M 0 0 L 10 5 L 0 10 z" class="arrowMarkerPath" style="stroke-width: 1; stroke-dasharray: 1, 0;"/></marker><marker id="my-svg_flowchart-v2-pointStart" class="marker flowchart-v2" viewBox="0 0 10 10" refX="4.5" refY="5" markerUnits="userSpaceOnUse" markerWidth="8" markerHeight="8" orient="auto"><path d="M 0 5 L 10 10 L 10 0 z" class="arrowMarkerPath" style="stroke-width: 1; stroke-dasharray: 1, 0;"/></marker><marker id="my-svg_flowchart-v2-pointEnd-margin" class="marker flowchart-v2" viewBox="0 0 11.5 14" refX="11.5" refY="7" markerUnits="userSpaceOnUse" markerWidth="10.5" markerHeight="14" orient="auto"><path d="M 0 0 L 11.5 7 L 0 14 z" class="arrowMarkerPath" style="stroke-width: 0; stroke-dasharray: 1, 0;"/></marker><marker id="my-svg_flowchart-v2-pointStart-margin" class="marker flowchart-v2" viewBox="0 0 11.5 14" refX="1" refY="7" markerUnits="userSpaceOnUse" markerWidth="11.5" markerHeight="14" orient="auto"><polygon points="0,7 11.5,14 11.5,0" class="arrowMarkerPath" style="stroke-width: 0; stroke-dasharray: 1, 0;"/></marker><marker id="my-svg_flowchart-v2-circleEnd" class="marker flowchart-v2" viewBox="0 0 10 10" refX="11" refY="5" markerUnits="userSpaceOnUse" markerWidth="11" markerHeight="11" orient="auto"><circle cx="5" cy="5" r="5" class="arrowMarkerPath" style="stroke-width: 1; stroke-dasharray: 1, 0;"/></marker><marker id="my-svg_flowchart-v2-circleStart" class="marker flowchart-v2" viewBox="0 0 10 10" refX="-1" refY="5" markerUnits="userSpaceOnUse" markerWidth="11" markerHeight="11" orient="auto"><circle cx="5" cy="5" r="5" class="arrowMarkerPath" style="stroke-width: 1; stroke-dasharray: 1, 0;"/></marker><marker id="my-svg_flowchart-v2-circleEnd-margin" class="marker flowchart-v2" viewBox="0 0 10 10" refY="5" refX="12.25" markerUnits="userSpaceOnUse" markerWidth="14" markerHeight="14" orient="auto"><circle cx="5" cy="5" r="5" class="arrowMarkerPath" style="stroke-width: 0; stroke-dasharray: 1, 0;"/></marker><marker id="my-svg_flowchart-v2-circleStart-margin" class="marker flowchart-v2" viewBox="0 0 10 10" refX="-2" refY="5" markerUnits="userSpaceOnUse" markerWidth="14" markerHeight="14" orient="auto"><circle cx="5" cy="5" r="5" class="arrowMarkerPath" style="stroke-width: 0; stroke-dasharray: 1, 0;"/></marker><marker id="my-svg_flowchart-v2-crossEnd" class="marker cross flowchart-v2" viewBox="0 0 11 11" refX="12" refY="5.2" markerUnits="userSpaceOnUse" markerWidth="11" markerHeight="11" orient="auto"><path d="M 1,1 l 9,9 M 10,1 l -9,9" class="arrowMarkerPath" style="stroke-width: 2; stroke-dasharray: 1, 0;"/></marker><marker id="my-svg_flowchart-v2-crossStart" class="marker cross flowchart-v2" viewBox="0 0 11 11" refX="-1" refY="5.2" markerUnits="userSpaceOnUse" markerWidth="11" markerHeight="11" orient="auto"><path d="M 1,1 l 9,9 M 10,1 l -9,9" class="arrowMarkerPath" style="stroke-width: 2; stroke-dasharray: 1, 0;"/></marker><marker id="my-svg_flowchart-v2-crossEnd-margin" class="marker cross flowchart-v2" viewBox="0 0 15 15" refX="17.7" refY="7.5" markerUnits="userSpaceOnUse" markerWidth="12" markerHeight="12" orient="auto"><path d="M 1,1 L 14,14 M 1,14 L 14,1" class="arrowMarkerPath" style="stroke-width: 2.5;"/></marker><marker id="my-svg_flowchart-v2-crossStart-margin" class="marker cross flowchart-v2" viewBox="0 0 15 15" refX="-3.5" refY="7.5" markerUnits="userSpaceOnUse" markerWidth="12" markerHeight="12" orient="auto"><path d="M 1,1 L 14,14 M 1,14 L 14,1" class="arrowMarkerPath" style="stroke-width: 2.5; stroke-dasharray: 1, 0;"/></marker><g class="root"><g class="clusters"><g class="cluster" id="my-svg-LAYER4" data-look="classic"><rect style="" x="30.6953125" y="891.859375" width="1513.4296875" height="333.87976837158203"/><g class="cluster-label" transform="translate(731.83203125, 891.859375)"><foreignObject width="111.15625" height="24"><div xmlns="http://www.w3.org/1999/xhtml" style="display: table-cell; white-space: nowrap; line-height: 1.5;"><span class="nodeLabel"><p>journal (layer 4)</p></span></div></foreignObject></g></g><g class="cluster" id="my-svg-DECIDE" data-look="classic"><rect style="" x="536.31640625" y="665.859375" width="377.7109375" height="128"/><g class="cluster-label" transform="translate(670.03125, 665.859375)"><foreignObject width="110.28125" height="24"><div xmlns="http://www.w3.org/1999/xhtml" style="display: table-cell; white-space: nowrap; line-height: 1.5;"><span class="nodeLabel"><p>decide (layer 3)</p></span></div></foreignObject></g></g><g class="cluster" id="my-svg-LAYER2" data-look="classic"><rect style="" x="530.7265625" y="121" width="973.3984375" height="446.859375"/><g class="cluster-label" transform="translate(935.60546875, 121)"><foreignObject width="163.640625" height="24"><div xmlns="http://www.w3.org/1999/xhtml" style="display: table-cell; white-space: nowrap; line-height: 1.5;"><span class="nodeLabel"><p>screen (layers 1 and 2)</p></span></div></foreignObject></g></g><g class="cluster" id="my-svg-SRC" data-look="classic"><rect style="" x="90.6953125" y="322" width="420.03125" height="245.859375"/><g class="cluster-label" transform="translate(272.6953125, 322)"><foreignObject width="56.03125" height="24"><div xmlns="http://www.w3.org/1999/xhtml" style="display: table-cell; white-space: nowrap; line-height: 1.5;"><span class="nodeLabel"><p>sources</p></span></div></foreignObject></g></g></g><g class="edgePaths"><path d="M976.172,47.5L976.089,53.583C976.005,59.667,975.839,71.833,975.755,84.083C975.672,96.333,975.672,108.667,975.672,118.333C975.672,128,975.672,135,975.672,138.5L975.672,142" id="my-svg-L_OP_SC_0" class="edge-thickness-normal edge-pattern-solid edge-thickness-normal edge-pattern-solid flowchart-link" style=";" data-edge="true" data-et="edge" data-id="L_OP_SC_0" data-points="W3sieCI6OTc2LjE3MTg3NSwieSI6NDcuNX0seyJ4Ijo5NzUuNjcxODc1LCJ5Ijo4NH0seyJ4Ijo5NzUuNjcxODc1LCJ5IjoxMjF9LHsieCI6OTc1LjY3MTg3NSwieSI6MTQ2fV0=" data-look="classic" marker-end="url(#my-svg_flowchart-v2-pointEnd)"/><path d="M897.641,206.132L856.488,217.277C815.336,228.421,733.031,250.711,691.879,270.022C650.727,289.333,650.727,305.667,593.925,329.891C537.124,354.115,423.522,386.23,366.721,402.288L309.919,418.346" id="my-svg-L_SC_IDX_0" class="edge-thickness-normal edge-pattern-solid edge-thickness-normal edge-pattern-solid flowchart-link" style=";" data-edge="true" data-et="edge" data-id="L_SC_IDX_0" data-points="W3sieCI6ODk3LjY0MDYyNSwieSI6MjA2LjEzMjAxNzQwNjc3NTJ9LHsieCI6NjUwLjcyNjU2MjUsInkiOjI3M30seyJ4Ijo2NTAuNzI2NTYyNSwieSI6MzIyfSx7IngiOjMwNi4wNzAzMTI1LCJ5Ijo0MTkuNDMzODE0MTE2OTYwMX1d" data-look="classic" marker-end="url(#my-svg_flowchart-v2-pointEnd)"/><path d="M900.019,224L884.178,232.167C868.336,240.333,836.652,256.667,820.811,273C804.969,289.333,804.969,305.667,750.731,330.97C696.493,356.274,588.017,390.548,533.779,407.685L479.541,424.821" id="my-svg-L_SC_YF_0" class="edge-thickness-normal edge-pattern-solid edge-thickness-normal edge-pattern-solid flowchart-link" style=";" data-edge="true" data-et="edge" data-id="L_SC_YF_0" data-points="W3sieCI6OTAwLjAxOTM1MzY5MzE4MTgsInkiOjIyNH0seyJ4Ijo4MDQuOTY4NzUsInkiOjI3M30seyJ4Ijo4MDQuOTY4NzUsInkiOjMyMn0seyJ4Ijo0NzUuNzI2NTYyNSwieSI6NDI2LjAyNjU0MjA0MzU4MzQ1fV0=" data-look="classic" marker-end="url(#my-svg_flowchart-v2-pointEnd)"/><path d="M1053.703,210.019L1086.441,220.516C1119.178,231.013,1184.654,252.006,1217.391,270.67C1250.129,289.333,1250.129,305.667,1263.094,327.341C1276.059,349.015,1301.99,376.029,1314.955,389.537L1327.92,403.044" id="my-svg-L_SC_TT_0" class="edge-thickness-normal edge-pattern-solid edge-thickness-normal edge-pattern-solid flowchart-link" style=";" data-edge="true" data-et="edge" data-id="L_SC_TT_0" data-points="W3sieCI6MTA1My43MDMxMjUsInkiOjIxMC4wMTkzOTkwOTc2NTAyfSx7IngiOjEyNTAuMTI4OTA2MjUsInkiOjI3M30seyJ4IjoxMjUwLjEyODkwNjI1LCJ5IjozMjJ9LHsieCI6MTMzMC42OTAyMDQ5NTcxMDIsInkiOjQwNS45Mjk2ODc1fV0=" data-look="classic" marker-end="url(#my-svg_flowchart-v2-pointEnd)"/><path d="M1386.526,405.93L1393.126,391.941C1399.726,377.953,1412.925,349.977,1419.525,327.822C1426.125,305.667,1426.125,289.333,1364.709,269.169C1303.293,249.004,1180.461,225.007,1119.045,213.009L1057.629,201.011" id="my-svg-L_TT_SC_0" class="edge-thickness-normal edge-pattern-solid edge-thickness-normal edge-pattern-solid flowchart-link" style=";" data-edge="true" data-et="edge" data-id="L_TT_SC_0" data-points="W3sieCI6MTM4Ni41MjU3NjI2MzEwNzcyLCJ5Ijo0MDUuOTI5Njg3NX0seyJ4IjoxNDI2LjEyNSwieSI6MzIyfSx7IngiOjE0MjYuMTI1LCJ5IjoyNzN9LHsieCI6MTA1My43MDMxMjUsInkiOjIwMC4yNDQwOTQ0ODgxODg5OH1d" data-look="classic" marker-end="url(#my-svg_flowchart-v2-pointEnd)"/><path d="M924.059,224L913.251,232.167C902.443,240.333,880.827,256.667,870.019,273C859.211,289.333,859.211,305.667,859.211,317.333C859.211,329,859.211,336,859.211,339.5L859.211,343" id="my-svg-L_SC_GATES_0" class="edge-thickness-normal edge-pattern-solid edge-thickness-normal edge-pattern-solid flowchart-link" style=";" data-edge="true" data-et="edge" data-id="L_SC_GATES_0" data-points="W3sieCI6OTI0LjA1ODUwNDk3MTU5MDksInkiOjIyNH0seyJ4Ijo4NTkuMjEwOTM3NSwieSI6MjczfSx7IngiOjg1OS4yMTA5Mzc1LCJ5IjozMjJ9LHsieCI6ODU5LjIxMDkzNzUsInkiOjM0N31d" data-look="classic" marker-end="url(#my-svg_flowchart-v2-pointEnd)"/><path d="M1036.149,224L1048.813,232.167C1061.477,240.333,1086.805,256.667,1099.469,273C1112.133,289.333,1112.133,305.667,1112.133,327.155C1112.133,348.643,1112.133,375.286,1112.133,388.608L1112.133,401.93" id="my-svg-L_SC_RANK_0" class="edge-thickness-normal edge-pattern-solid edge-thickness-normal edge-pattern-solid flowchart-link" style=";" data-edge="true" data-et="edge" data-id="L_SC_RANK_0" data-points="W3sieCI6MTAzNi4xNDg4ODEzOTIwNDU1LCJ5IjoyMjR9LHsieCI6MTExMi4xMzI4MTI1LCJ5IjoyNzN9LHsieCI6MTExMi4xMzI4MTI1LCJ5IjozMjJ9LHsieCI6MTExMi4xMzI4MTI1LCJ5Ijo0MDUuOTI5Njg3NX1d" data-look="classic" marker-end="url(#my-svg_flowchart-v2-pointEnd)"/><path d="M809.059,492.707L795.911,505.233C782.763,517.758,756.468,542.809,743.32,563.501C730.172,584.193,730.172,600.526,730.172,616.859C730.172,633.193,730.172,649.526,730.172,661.193C730.172,672.859,730.172,679.859,730.172,683.359L730.172,686.859" id="my-svg-L_GATES_JV_0" class="edge-thickness-normal edge-pattern-solid edge-thickness-normal edge-pattern-solid flowchart-link" style=";" data-edge="true" data-et="edge" data-id="L_GATES_JV_0" data-points="W3sieCI6ODA5LjA1ODg2NDgwODc3MTUsInkiOjQ5Mi43MDczMDIzMDg3NzE1NX0seyJ4Ijo3MzAuMTcxODc1LCJ5Ijo1NjcuODU5Mzc1fSx7IngiOjczMC4xNzE4NzUsInkiOjYxNi44NTkzNzV9LHsieCI6NzMwLjE3MTg3NSwieSI6NjY1Ljg1OTM3NX0seyJ4Ijo3MzAuMTcxODc1LCJ5Ijo2OTAuODU5Mzc1fV0=" data-look="classic" marker-end="url(#my-svg_flowchart-v2-pointEnd)"/><path d="M663.141,768.859L655.979,773.026C648.818,777.193,634.495,785.526,627.333,797.859C620.172,810.193,620.172,826.526,620.172,842.859C620.172,859.193,620.172,875.526,642.185,891.28C664.198,907.033,708.224,922.207,730.237,929.794L752.25,937.381" id="my-svg-L_JV_DB_0" class="edge-thickness-normal edge-pattern-solid edge-thickness-normal edge-pattern-solid flowchart-link" style=";" data-edge="true" data-et="edge" data-id="L_JV_DB_0" data-points="W3sieCI6NjYzLjE0MDYyNSwieSI6NzY4Ljg1OTM3NX0seyJ4Ijo2MjAuMTcxODc1LCJ5Ijo3OTMuODU5Mzc1fSx7IngiOjYyMC4xNzE4NzUsInkiOjg0Mi44NTkzNzV9LHsieCI6NjIwLjE3MTg3NSwieSI6ODkxLjg1OTM3NX0seyJ4Ijo3NTYuMDMxMjUsInkiOjkzOC42ODQyNDA2NDA3ODU0fV0=" data-look="classic" marker-end="url(#my-svg_flowchart-v2-pointEnd)"/><path d="M797.203,768.859L804.365,773.026C811.526,777.193,825.849,785.526,833.01,797.859C840.172,810.193,840.172,826.526,840.172,842.859C840.172,859.193,840.172,875.526,840.573,887.203C840.975,898.879,841.777,905.899,842.179,909.408L842.58,912.918" id="my-svg-L_JV_DB_2" class="edge-thickness-normal edge-pattern-dotted edge-thickness-normal edge-pattern-solid flowchart-link" style=";" data-edge="true" data-et="edge" data-id="L_JV_DB_2" data-points="W3sieCI6Nzk3LjIwMzEyNSwieSI6NzY4Ljg1OTM3NX0seyJ4Ijo4NDAuMTcxODc1LCJ5Ijo3OTMuODU5Mzc1fSx7IngiOjg0MC4xNzE4NzUsInkiOjg0Mi44NTkzNzV9LHsieCI6ODQwLjE3MTg3NSwieSI6ODkxLjg1OTM3NX0seyJ4Ijo4NDMuMDM0NTE2MTcwOTQ2NiwieSI6OTE2Ljg5MjI4MzUyODk0NjF9XQ==" data-look="classic" marker-end="url(#my-svg_flowchart-v2-pointEnd)"/><path d="M926.136,475.935L959.205,491.256C992.275,506.576,1058.415,537.218,1091.485,560.705C1124.555,584.193,1124.555,600.526,1124.555,616.859C1124.555,633.193,1124.555,649.526,1124.555,663.193C1124.555,676.859,1124.555,687.859,1124.555,693.359L1124.555,698.859" id="my-svg-L_GATES_SKIP_0" class="edge-thickness-normal edge-pattern-solid edge-thickness-normal edge-pattern-solid flowchart-link" style=";" data-edge="true" data-et="edge" data-id="L_GATES_SKIP_0" data-points="W3sieCI6OTI2LjEzNTUwMTUwMDI4MTcsInkiOjQ3NS45MzQ4MTA5OTk3MTgzfSx7IngiOjExMjQuNTU0Njg3NSwieSI6NTY3Ljg1OTM3NX0seyJ4IjoxMTI0LjU1NDY4NzUsInkiOjYxNi44NTkzNzV9LHsieCI6MTEyNC41NTQ2ODc1LCJ5Ijo2NjUuODU5Mzc1fSx7IngiOjExMjQuNTU0Njg3NSwieSI6NzAyLjg1OTM3NX1d" data-look="classic" marker-end="url(#my-svg_flowchart-v2-pointEnd)"/><path d="M1124.555,756.859L1124.555,763.026C1124.555,769.193,1124.555,781.526,1124.555,795.859C1124.555,810.193,1124.555,826.526,1124.555,842.859C1124.555,859.193,1124.555,875.526,1094.835,892.213C1065.115,908.9,1005.675,925.942,975.956,934.462L946.236,942.983" id="my-svg-L_SKIP_DB_0" class="edge-thickness-normal edge-pattern-solid edge-thickness-normal edge-pattern-solid flowchart-link" style=";" data-edge="true" data-et="edge" data-id="L_SKIP_DB_0" data-points="W3sieCI6MTEyNC41NTQ2ODc1LCJ5Ijo3NTYuODU5Mzc1fSx7IngiOjExMjQuNTU0Njg3NSwieSI6NzkzLjg1OTM3NX0seyJ4IjoxMTI0LjU1NDY4NzUsInkiOjg0Mi44NTkzNzV9LHsieCI6MTEyNC41NTQ2ODc1LCJ5Ijo4OTEuODU5Mzc1fSx7IngiOjk0Mi4zOTA2MjUsInkiOjk0NC4wODUwMzgzNjI4NDQ0fV0=" data-look="classic" marker-end="url(#my-svg_flowchart-v2-pointEnd)"/><path d="M934.187,30.621L790.271,39.518C646.356,48.414,358.526,66.207,214.611,81.27C70.695,96.333,70.695,108.667,70.695,125.5C70.695,142.333,70.695,163.667,70.695,189C70.695,214.333,70.695,243.667,70.695,266.5C70.695,289.333,70.695,305.667,70.695,334.322C70.695,362.977,70.695,403.953,70.695,444.93C70.695,485.906,70.695,526.883,70.695,555.538C70.695,584.193,70.695,600.526,70.695,616.859C70.695,633.193,70.695,649.526,70.695,668.359C70.695,687.193,70.695,708.526,70.695,729.859C70.695,751.193,70.695,772.526,70.695,791.359C70.695,810.193,70.695,826.526,70.695,842.859C70.695,859.193,70.695,875.526,70.695,896.849C70.695,918.173,70.695,944.486,70.695,974.799C70.695,1005.113,70.695,1039.426,176.753,1068.712C282.811,1097.997,494.926,1122.256,600.984,1134.385L707.042,1146.514" id="my-svg-L_OP_RP_0" class="edge-thickness-normal edge-pattern-solid edge-thickness-normal edge-pattern-solid flowchart-link" style=";" data-edge="true" data-et="edge" data-id="L_OP_RP_0" data-points="W3sieCI6OTM0LjE4NjY1MjQzMDIzNDUsInkiOjMwLjYyMTI0NDc2MzExMTQ4NH0seyJ4Ijo3MC42OTUzMTI1LCJ5Ijo4NH0seyJ4Ijo3MC42OTUzMTI1LCJ5IjoxMjF9LHsieCI6NzAuNjk1MzEyNSwieSI6MTg1fSx7IngiOjcwLjY5NTMxMjUsInkiOjI3M30seyJ4Ijo3MC42OTUzMTI1LCJ5IjozMjJ9LHsieCI6NzAuNjk1MzEyNSwieSI6NDQ0LjkyOTY4NzV9LHsieCI6NzAuNjk1MzEyNSwieSI6NTY3Ljg1OTM3NX0seyJ4Ijo3MC42OTUzMTI1LCJ5Ijo2MTYuODU5Mzc1fSx7IngiOjcwLjY5NTMxMjUsInkiOjY2NS44NTkzNzV9LHsieCI6NzAuNjk1MzEyNSwieSI6NzI5Ljg1OTM3NX0seyJ4Ijo3MC42OTUzMTI1LCJ5Ijo3OTMuODU5Mzc1fSx7IngiOjcwLjY5NTMxMjUsInkiOjg0Mi44NTkzNzV9LHsieCI6NzAuNjk1MzEyNSwieSI6ODkxLjg1OTM3NX0seyJ4Ijo3MC42OTUzMTI1LCJ5Ijo5NzAuNzk5MjU5MTg1NzkxfSx7IngiOjcwLjY5NTMxMjUsInkiOjEwNzMuNzM5MTQzMzcxNTgyfSx7IngiOjcxMS4wMTU2MjUsInkiOjExNDYuOTY4Mzg4MDg5NDgwOX1d" data-look="classic" marker-end="url(#my-svg_flowchart-v2-pointEnd)"/><path d="M937.414,1122.739L957.777,1114.572C978.139,1106.406,1018.865,1090.072,1020.261,1070.204C1021.658,1050.336,983.727,1026.933,964.761,1015.231L945.795,1003.53" id="my-svg-L_RP_DB_0" class="edge-thickness-normal edge-pattern-solid edge-thickness-normal edge-pattern-solid flowchart-link" style=";" data-edge="true" data-et="edge" data-id="L_RP_DB_0" data-points="W3sieCI6OTM3LjQxMzkyOTMzMjM4NjQsInkiOjExMjIuNzM5MTQzMzcxNTgyfSx7IngiOjEwNTkuNTg5ODQzNzUsInkiOjEwNzMuNzM5MTQzMzcxNTgyfSx7IngiOjk0Mi4zOTA2MjUsInkiOjEwMDEuNDI5MzcxODc3NzY2N31d" data-look="classic" marker-end="url(#my-svg_flowchart-v2-pointEnd)"/><path d="M756.031,1001.525L719.531,1013.561C683.031,1025.596,610.031,1049.668,601.888,1069.935C593.746,1090.203,650.46,1106.667,678.817,1114.899L707.174,1123.131" id="my-svg-L_DB_RP_0" class="edge-thickness-normal edge-pattern-solid edge-thickness-normal edge-pattern-solid flowchart-link" style=";" data-edge="true" data-et="edge" data-id="L_DB_RP_0" data-points="W3sieCI6NzU2LjAzMTI1LCJ5IjoxMDAxLjUyNDg1Mjg4NjQzMjR9LHsieCI6NTM3LjAzMTI1LCJ5IjoxMDczLjczOTE0MzM3MTU4Mn0seyJ4Ijo3MTEuMDE1NjI1LCJ5IjoxMTI0LjI0NTgxODI4NTI0NjN9XQ==" data-look="classic" marker-end="url(#my-svg_flowchart-v2-pointEnd)"/><path d="M969.328,1145.121L1061.794,1133.224C1154.26,1121.327,1339.193,1097.533,1431.659,1068.48C1524.125,1039.426,1524.125,1005.113,1524.125,974.799C1524.125,944.486,1524.125,918.173,1524.125,896.849C1524.125,875.526,1524.125,859.193,1524.125,842.859C1524.125,826.526,1524.125,810.193,1524.125,791.359C1524.125,772.526,1524.125,751.193,1524.125,729.859C1524.125,708.526,1524.125,687.193,1524.125,668.359C1524.125,649.526,1524.125,633.193,1524.125,616.859C1524.125,600.526,1524.125,584.193,1524.125,555.538C1524.125,526.883,1524.125,485.906,1524.125,444.93C1524.125,403.953,1524.125,362.977,1524.125,334.322C1524.125,305.667,1524.125,289.333,1524.125,266.5C1524.125,243.667,1524.125,214.333,1524.125,189C1524.125,163.667,1524.125,142.333,1524.125,125.5C1524.125,108.667,1524.125,96.333,1440.411,81.617C1356.698,66.9,1189.27,49.801,1105.556,41.251L1021.843,32.701" id="my-svg-L_RP_OP_0" class="edge-thickness-normal edge-pattern-solid edge-thickness-normal edge-pattern-solid flowchart-link" style=";" data-edge="true" data-et="edge" data-id="L_RP_OP_0" data-points="W3sieCI6OTY5LjMyODEyNSwieSI6MTE0NS4xMjE0MTA5Nzk0NjgyfSx7IngiOjE1MjQuMTI1LCJ5IjoxMDczLjczOTE0MzM3MTU4Mn0seyJ4IjoxNTI0LjEyNSwieSI6OTcwLjc5OTI1OTE4NTc5MX0seyJ4IjoxNTI0LjEyNSwieSI6ODkxLjg1OTM3NX0seyJ4IjoxNTI0LjEyNSwieSI6ODQyLjg1OTM3NX0seyJ4IjoxNTI0LjEyNSwieSI6NzkzLjg1OTM3NX0seyJ4IjoxNTI0LjEyNSwieSI6NzI5Ljg1OTM3NX0seyJ4IjoxNTI0LjEyNSwieSI6NjY1Ljg1OTM3NX0seyJ4IjoxNTI0LjEyNSwieSI6NjE2Ljg1OTM3NX0seyJ4IjoxNTI0LjEyNSwieSI6NTY3Ljg1OTM3NX0seyJ4IjoxNTI0LjEyNSwieSI6NDQ0LjkyOTY4NzV9LHsieCI6MTUyNC4xMjUsInkiOjMyMn0seyJ4IjoxNTI0LjEyNSwieSI6MjczfSx7IngiOjE1MjQuMTI1LCJ5IjoxODV9LHsieCI6MTUyNC4xMjUsInkiOjEyMX0seyJ4IjoxNTI0LjEyNSwieSI6ODR9LHsieCI6MTAxNy44NjM0NTQwNTY0Nzg5LCJ5IjozMi4yOTQ5NDE3MzU3OTc0NjV9XQ==" data-look="classic" marker-end="url(#my-svg_flowchart-v2-pointEnd)"/></g><g class="edgeLabels"><g class="edgeLabel" transform="translate(975.671875, 84)"><g class="label" data-id="L_OP_SC_0" transform="translate(-11.5625, -12)"><foreignObject width="23.125" height="24"><div xmlns="http://www.w3.org/1999/xhtml" class="labelBkg" style="display: table-cell; white-space: nowrap; line-height: 1.5; max-width: 200px; text-align: center;"><span class="edgeLabel"><p>run</p></span></div></foreignObject></g></g><g class="edgeLabel" transform="translate(650.7265625, 273)"><g class="label" data-id="L_SC_IDX_0" transform="translate(-100, -24)"><foreignObject width="200" height="48"><div xmlns="http://www.w3.org/1999/xhtml" class="labelBkg" style="display: table; white-space: break-spaces; line-height: 1.5; max-width: 200px; text-align: center; width: 200px;"><span class="edgeLabel"><p>universe, suspended, foreign flow</p></span></div></foreignObject></g></g><g class="edgeLabel" transform="translate(804.96875, 273)"><g class="label" data-id="L_SC_YF_0" transform="translate(-34.2421875, -12)"><foreignObject width="68.484375" height="24"><div xmlns="http://www.w3.org/1999/xhtml" class="labelBkg" style="display: table-cell; white-space: nowrap; line-height: 1.5; max-width: 200px; text-align: center;"><span class="edgeLabel"><p>daily bars</p></span></div></foreignObject></g></g><g class="edgeLabel"><g class="label" data-id="L_SC_TT_0" transform="translate(0, 0)"><foreignObject width="0" height="0"><div xmlns="http://www.w3.org/1999/xhtml" class="labelBkg" style="display: table-cell; white-space: nowrap; line-height: 1.5; max-width: 200px; text-align: center;"><span class="edgeLabel"></span></div></foreignObject></g></g><g class="edgeLabel"><g class="label" data-id="L_TT_SC_0" transform="translate(0, 0)"><foreignObject width="0" height="0"><div xmlns="http://www.w3.org/1999/xhtml" class="labelBkg" style="display: table-cell; white-space: nowrap; line-height: 1.5; max-width: 200px; text-align: center;"><span class="edgeLabel"></span></div></foreignObject></g></g><g class="edgeLabel"><g class="label" data-id="L_SC_GATES_0" transform="translate(0, 0)"><foreignObject width="0" height="0"><div xmlns="http://www.w3.org/1999/xhtml" class="labelBkg" style="display: table-cell; white-space: nowrap; line-height: 1.5; max-width: 200px; text-align: center;"><span class="edgeLabel"></span></div></foreignObject></g></g><g class="edgeLabel"><g class="label" data-id="L_SC_RANK_0" transform="translate(0, 0)"><foreignObject width="0" height="0"><div xmlns="http://www.w3.org/1999/xhtml" class="labelBkg" style="display: table-cell; white-space: nowrap; line-height: 1.5; max-width: 200px; text-align: center;"><span class="edgeLabel"></span></div></foreignObject></g></g><g class="edgeLabel" transform="translate(730.171875, 616.859375)"><g class="label" data-id="L_GATES_JV_0" transform="translate(-25.3515625, -12)"><foreignObject width="50.703125" height="24"><div xmlns="http://www.w3.org/1999/xhtml" class="labelBkg" style="display: table-cell; white-space: nowrap; line-height: 1.5; max-width: 200px; text-align: center;"><span class="edgeLabel"><p>passes</p></span></div></foreignObject></g></g><g class="edgeLabel" transform="translate(620.171875, 842.859375)"><g class="label" data-id="L_JV_DB_0" transform="translate(-100, -24)"><foreignObject width="200" height="48"><div xmlns="http://www.w3.org/1999/xhtml" class="labelBkg" style="display: table; white-space: break-spaces; line-height: 1.5; max-width: 200px; text-align: center; width: 200px;"><span class="edgeLabel"><p>typed value + probability each</p></span></div></foreignObject></g></g><g class="edgeLabel" transform="translate(840.171875, 842.859375)"><g class="label" data-id="L_JV_DB_2" transform="translate(-100, -24)"><foreignObject width="200" height="48"><div xmlns="http://www.w3.org/1999/xhtml" class="labelBkg" style="display: table; white-space: break-spaces; line-height: 1.5; max-width: 200px; text-align: center; width: 200px;"><span class="edgeLabel"><p>no price: the plan is Python's arithmetic</p></span></div></foreignObject></g></g><g class="edgeLabel" transform="translate(1124.5546875, 616.859375)"><g class="label" data-id="L_GATES_SKIP_0" transform="translate(-14.2265625, -12)"><foreignObject width="28.453125" height="24"><div xmlns="http://www.w3.org/1999/xhtml" class="labelBkg" style="display: table-cell; white-space: nowrap; line-height: 1.5; max-width: 200px; text-align: center;"><span class="edgeLabel"><p>fails</p></span></div></foreignObject></g></g><g class="edgeLabel"><g class="label" data-id="L_SKIP_DB_0" transform="translate(0, 0)"><foreignObject width="0" height="0"><div xmlns="http://www.w3.org/1999/xhtml" class="labelBkg" style="display: table-cell; white-space: nowrap; line-height: 1.5; max-width: 200px; text-align: center;"><span class="edgeLabel"></span></div></foreignObject></g></g><g class="edgeLabel" transform="translate(70.6953125, 616.859375)"><g class="label" data-id="L_OP_RP_0" transform="translate(-62.6953125, -12)"><foreignObject width="125.390625" height="24"><div xmlns="http://www.w3.org/1999/xhtml" class="labelBkg" style="display: table-cell; white-space: nowrap; line-height: 1.5; max-width: 200px; text-align: center;"><span class="edgeLabel"><p>analyze, watchlist</p></span></div></foreignObject></g></g><g class="edgeLabel" transform="translate(1057.00458, 1072.14408)"><g class="label" data-id="L_RP_DB_0" transform="translate(-100, -24)"><foreignObject width="200" height="48"><div xmlns="http://www.w3.org/1999/xhtml" class="labelBkg" style="display: table; white-space: break-spaces; line-height: 1.5; max-width: 200px; text-align: center; width: 200px;"><span class="edgeLabel"><p>outcomes resolved from bars</p></span></div></foreignObject></g></g><g class="edgeLabel"><g class="label" data-id="L_DB_RP_0" transform="translate(0, 0)"><foreignObject width="0" height="0"><div xmlns="http://www.w3.org/1999/xhtml" class="labelBkg" style="display: table-cell; white-space: nowrap; line-height: 1.5; max-width: 200px; text-align: center;"><span class="edgeLabel"></span></div></foreignObject></g></g><g class="edgeLabel" transform="translate(1524.125, 616.859375)"><g class="label" data-id="L_RP_OP_0" transform="translate(-100, -24)"><foreignObject width="200" height="48"><div xmlns="http://www.w3.org/1999/xhtml" class="labelBkg" style="display: table; white-space: break-spaces; line-height: 1.5; max-width: 200px; text-align: center; width: 200px;"><span class="edgeLabel"><p>R, hit rate, calibration, cohort</p></span></div></foreignObject></g></g></g><g class="nodes"><g class="node default" id="my-svg-flowchart-OP-0" data-look="classic" transform="translate(975.671875, 27.5)"><g class="basic label-container outer-path"><path d="M-22.671875 -19.5 C-6.117730098961786 -19.5, 10.436414802076428 -19.5, 22.671875 -19.5 C22.671875 -19.5, 22.671875 -19.5, 22.671875 -19.5 C23.133677420082243 -19.485190895231845, 23.595479840164487 -19.470381790463687, 23.9212442896239 -19.45993515863156 C24.33591293080743 -19.419932573528587, 24.750581571990967 -19.37992998842562, 25.165479652847864 -19.3399052695533 C25.56628110739036 -19.275106798644572, 25.967082561932855 -19.210308327735845, 26.39946825967676 -19.140403561325776 C26.684418797669135 -19.075365460505054, 26.96936933566151 -19.010327359684332, 27.61813938623539 -18.862249829261074 C27.88987309984945 -18.781600689419793, 28.161606813463504 -18.70095154957851, 28.816485251460602 -18.50658706670804 C29.070518032724383 -18.41310065494968, 29.324550813988168 -18.319614243191317, 29.989581595147794 -18.074876768247425 C30.36202480898065 -17.910007205619017, 30.73446802281351 -17.74513764299061, 31.13260791279238 -17.568892924097174 C31.524405081648418 -17.364492592063044, 31.916202250504455 -17.160092260028915, 32.24086726407678 -16.990714730406097 C32.54356716078474 -16.80721627415969, 32.8462670574927 -16.623717817913278, 33.3098055736057 -16.342718045390892 C33.58836714869047 -16.148405549347988, 33.866928723775246 -15.954093053305085, 34.33503034457871 -15.627565626425154 C34.61819538229435 -15.401749044185046, 34.90136042001 -15.175932461944937, 35.312328708501866 -14.848196188198123 C35.52425362446429 -14.655731586747061, 35.736178540426714 -14.463266985295997, 36.23768473676799 -14.007812326905688 C36.465013585346284 -13.773076626703027, 36.69234243392457 -13.538340926500368, 37.10729594296865 -13.10986736009568 C37.430489266482766 -12.730226092074917, 37.75368258999689 -12.350584824054152, 37.91758890812658 -12.158051136245305 C38.12751569141481 -11.876768371362472, 38.33744247470303 -11.595485606479638, 38.665233964640635 -11.156274872382312 C38.89593970496844 -10.80184890207326, 39.12664544529625 -10.44742293176421, 39.34715887860425 -10.108655082055241 C39.56232816984384 -9.726600217205977, 39.77749746108343 -9.344545352356713, 39.960561474273504 -9.019496659696287 C40.17564034510599 -8.572880782462017, 40.39071921593847 -8.126264905227748, 40.50292114880834 -7.893275190886684 C40.60857240362986 -7.6323145488494895, 40.714223658451374 -7.371353906812294, 40.972009229970325 -6.734618561215508 C41.11679536569936 -6.2985457889376235, 41.26158150142839 -5.862473016659739, 41.36589813421488 -5.548287939305138 C41.465852074958335 -5.16712024293839, 41.565806015701796 -4.785952546571642, 41.68296928754556 -4.339158212148133 C41.74490554246155 -4.021128633386624, 41.806841797377544 -3.7030990546251155, 41.921919776581774 -3.1121979531509023 C41.962572147263614 -2.796906193861129, 42.00322451794546 -2.4816144345713558, 42.08176770250937 -1.872449005199798 C42.10632150273004 -1.4900037472919996, 42.13087530295071 -1.1075584893842014, 42.16185621591342 -0.6250057626472757 C42.16185621591342 -0.2062393381207599, 42.16185621591342 0.2125270864057559, 42.16185621591342 0.625005762647271 C42.13947696306276 0.9735806900039788, 42.11709771021211 1.3221556173606865, 42.08176770250937 1.8724490051997846 C42.03800089550667 2.2118957175791145, 41.994234088503966 2.551342429958444, 41.921919776581774 3.1121979531508885 C41.83049601369402 3.581639653160394, 41.73907225080627 4.051081353169899, 41.68296928754556 4.339158212148129 C41.59875762503952 4.660293778849072, 41.514545962533475 4.981429345550014, 41.36589813421489 5.548287939305125 C41.25656230704125 5.877590030453784, 41.14722647986761 6.206892121602443, 40.972009229970325 6.734618561215495 C40.85395371425399 7.026217967482964, 40.735898198537654 7.317817373750434, 40.50292114880834 7.893275190886679 C40.30890447241986 8.296154970699206, 40.11488779603138 8.699034750511734, 39.960561474273504 9.019496659696284 C39.72509549760942 9.437590344778993, 39.48962952094534 9.855684029861703, 39.34715887860425 10.108655082055236 C39.102494480671446 10.48452529886995, 38.85783008273865 10.860395515684665, 38.66523396464064 11.156274872382301 C38.50162783997317 11.375492174612136, 38.3380217153057 11.594709476841969, 37.91758890812658 12.158051136245302 C37.64432882905138 12.479037974066012, 37.37106874997619 12.800024811886724, 37.10729594296866 13.10986736009567 C36.92012651876508 13.30313515748138, 36.7329570945615 13.49640295486709, 36.23768473676799 14.007812326905684 C36.00930112507562 14.215224280345458, 35.78091751338325 14.42263623378523, 35.31232870850189 14.848196188198111 C35.108375236740855 15.010843654497714, 34.904421764979816 15.173491120797317, 34.33503034457871 15.627565626425152 C34.06952527847479 15.812770467010182, 33.804020212370865 15.99797530759521, 33.30980557360571 16.34271804539089 C32.992118238984204 16.53530197457645, 32.6744309043627 16.727885903762008, 32.24086726407678 16.990714730406093 C32.007414522925565 17.112506875931068, 31.77396178177434 17.234299021456042, 31.132607912792388 17.56889292409717 C30.732919455781385 17.74582314767912, 30.333230998770382 17.92275337126107, 29.989581595147804 18.07487676824742 C29.682691118134173 18.187815300652908, 29.37580064112054 18.300753833058394, 28.816485251460616 18.506587066708033 C28.45219313960579 18.61470705329823, 28.087901027750963 18.72282703988843, 27.618139386235413 18.86224982926107 C27.30150035757341 18.934520621290407, 26.98486132891141 19.006791413319746, 26.399468259676766 19.140403561325773 C26.044629729731614 19.197771103033407, 25.689791199786466 19.25513864474104, 25.16547965284788 19.3399052695533 C24.777734451362765 19.377310582808736, 24.38998924987765 19.414715896064173, 23.9212442896239 19.45993515863156 C23.66084535149409 19.468285645741595, 23.40044641336428 19.476636132851635, 22.671875000000004 19.5 C22.671875000000004 19.5, 22.671875 19.5, 22.671875 19.5 C7.057507349405515 19.5, -8.55686030118897 19.5, -22.671874999999996 19.5 C-23.16872284804557 19.484067056568847, -23.665570696091137 19.468134113137694, -23.921244289623893 19.45993515863156 C-24.332792760329323 19.420233572622056, -24.744341231034756 19.380531986612556, -25.16547965284787 19.3399052695533 C-25.572122286904296 19.27416244203978, -25.97876492096072 19.208419614526264, -26.39946825967676 19.140403561325773 C-26.76446891736308 19.057094543060757, -27.129469575049395 18.973785524795744, -27.618139386235388 18.862249829261074 C-28.075830146801632 18.726409613992843, -28.53352090736788 18.590569398724607, -28.81648525146059 18.506587066708043 C-29.265836232553458 18.341221751910933, -29.715187213646328 18.175856437113822, -29.989581595147797 18.074876768247425 C-30.33868740313072 17.920337982909235, -30.68779321111364 17.765799197571045, -31.13260791279238 17.568892924097174 C-31.451894320529945 17.40232140969319, -31.77118072826751 17.23574989528921, -32.24086726407678 16.990714730406097 C-32.55373554748208 16.801052138387693, -32.866603830887364 16.61138954636929, -33.309805573605686 16.3427180453909 C-33.55874191936353 16.169070826870957, -33.80767826512137 15.995423608351011, -34.33503034457871 15.627565626425156 C-34.6792611706306 15.353050703015763, -35.023491996682495 15.07853577960637, -35.312328708501866 14.848196188198125 C-35.52877937474713 14.651621420084979, -35.74523004099239 14.455046651971832, -36.237684736767974 14.007812326905697 C-36.531145370524165 13.704790128986325, -36.82460600428035 13.401767931066953, -37.107295942968655 13.109867360095677 C-37.38136189095378 12.787933902798127, -37.655427838938905 12.466000445500576, -37.917588908126575 12.158051136245307 C-38.11671030410151 11.891246605971252, -38.315831700076444 11.6244420756972, -38.665233964640635 11.156274872382316 C-38.92902853732331 10.751015569980593, -39.192823110005996 10.345756267578873, -39.34715887860425 10.108655082055249 C-39.55361361398647 9.7420737935752, -39.7600683493687 9.375492505095153, -39.960561474273504 9.019496659696289 C-40.139254502887454 8.648436762361106, -40.3179475315014 8.277376865025923, -40.50292114880834 7.893275190886686 C-40.66024754238556 7.504675957052058, -40.817573935962784 7.1160767232174305, -40.972009229970325 6.73461856121551 C-41.08358684221298 6.39856457061891, -41.195164454455636 6.062510580022309, -41.36589813421488 5.5482879393051325 C-41.45565326660678 5.206012719374373, -41.54540839899868 4.863737499443613, -41.68296928754556 4.339158212148136 C-41.77705948217593 3.8560249486908673, -41.8711496768063 3.372891685233599, -41.921919776581774 3.112197953150904 C-41.96197230633145 2.8015584416790675, -42.00202483608111 2.4909189302072305, -42.08176770250937 1.872449005199809 C-42.11379227134346 1.3736404958420851, -42.14581684017756 0.874831986484361, -42.16185621591342 0.6250057626472781 C-42.16185621591342 0.36329652405655943, -42.16185621591342 0.10158728546584073, -42.16185621591342 -0.6250057626472687 C-42.143417556106016 -0.9122027725658337, -42.124978896298614 -1.1993997824843987, -42.08176770250937 -1.8724490051997822 C-42.04472036206398 -2.1597808618693652, -42.00767302161859 -2.4471127185389485, -41.921919776581774 -3.112197953150895 C-41.84540074351714 -3.5051070156344184, -41.76888171045251 -3.8980160781179416, -41.68296928754556 -4.339158212148126 C-41.59797034437533 -4.6632960212312415, -41.512971401205085 -4.987433830314356, -41.36589813421489 -5.548287939305123 C-41.21451367946366 -6.004233797178509, -41.06312922471242 -6.460179655051896, -40.97200922997033 -6.734618561215485 C-40.841781458389384 -7.056283674803102, -40.711553686808436 -7.37794878839072, -40.50292114880834 -7.893275190886676 C-40.29495533325205 -8.325120656644934, -40.086989517695756 -8.756966122403192, -39.960561474273504 -9.019496659696282 C-39.79971454831366 -9.3050966642554, -39.638867622353814 -9.590696668814516, -39.34715887860425 -10.108655082055243 C-39.152807829102656 -10.407230484653843, -38.95845677960107 -10.705805887252442, -38.66523396464064 -11.156274872382308 C-38.46170357825903 -11.428987048134026, -38.25817319187742 -11.701699223885742, -37.91758890812659 -12.158051136245302 C-37.718126388631376 -12.392351161383258, -37.51866386913617 -12.626651186521215, -37.10729594296866 -13.10986736009567 C-36.86045155684001 -13.364754455074506, -36.61360717071136 -13.619641550053341, -36.237684736767996 -14.007812326905677 C-35.88738928652991 -14.32594138650218, -35.537093836291824 -14.644070446098683, -35.31232870850189 -14.848196188198107 C-35.03997088371856 -15.065394305716707, -34.76761305893524 -15.282592423235306, -34.33503034457872 -15.627565626425149 C-34.01891188622568 -15.848076178424725, -33.702793427872635 -16.0685867304243, -33.309805573605715 -16.342718045390885 C-32.99734609931116 -16.53213281492393, -32.6848866250166 -16.721547584456978, -32.24086726407679 -16.99071473040609 C-31.84028331644522 -17.19969911929922, -31.43969936881365 -17.408683508192343, -31.132607912792388 -17.56889292409717 C-30.86609621490567 -17.686869746962994, -30.599584517018954 -17.804846569828822, -29.989581595147804 -18.07487676824742 C-29.695924591365692 -18.182945260174826, -29.40226758758358 -18.291013752102227, -28.81648525146062 -18.506587066708033 C-28.487930100940467 -18.604100510761235, -28.159374950420318 -18.701613954814437, -27.618139386235413 -18.862249829261067 C-27.289786940139596 -18.93719413238248, -26.96143449404378 -19.012138435503896, -26.399468259676766 -19.140403561325773 C-26.031362225361473 -19.199916090248937, -25.66325619104618 -19.259428619172105, -25.165479652847882 -19.3399052695533 C-24.781669940401194 -19.376930930914316, -24.397860227954506 -19.413956592275337, -23.921244289623903 -19.45993515863156 C-23.66070728444667 -19.468290073283075, -23.400170279269435 -19.476644987934595, -22.671875000000007 -19.5 C-22.671875000000007 -19.5, -22.671875000000004 -19.5, -22.671875 -19.5" stroke="none" stroke-width="0" fill="#ECECFF" style=""/><path d="M-22.671875 -19.5 C-12.85658203764998 -19.5, -3.041289075299961 -19.5, 22.671875 -19.5 M-22.671875 -19.5 C-7.352554829472382 -19.5, 7.966765341055236 -19.5, 22.671875 -19.5 M22.671875 -19.5 C22.671875 -19.5, 22.671875 -19.5, 22.671875 -19.5 M22.671875 -19.5 C22.671875 -19.5, 22.671875 -19.5, 22.671875 -19.5 M22.671875 -19.5 C23.004528864667375 -19.489332438031585, 23.33718272933475 -19.47866487606317, 23.9212442896239 -19.45993515863156 M22.671875 -19.5 C23.100798437496866 -19.4862452602083, 23.52972187499373 -19.4724905204166, 23.9212442896239 -19.45993515863156 M23.9212442896239 -19.45993515863156 C24.207316293178962 -19.432338136500523, 24.493388296734025 -19.404741114369486, 25.165479652847864 -19.3399052695533 M23.9212442896239 -19.45993515863156 C24.311178898913045 -19.422318635838415, 24.701113508202187 -19.38470211304527, 25.165479652847864 -19.3399052695533 M25.165479652847864 -19.3399052695533 C25.60059058628918 -19.269559908170194, 26.03570151973049 -19.199214546787086, 26.39946825967676 -19.140403561325776 M25.165479652847864 -19.3399052695533 C25.527179253383792 -19.281428483160944, 25.88887885391972 -19.222951696768593, 26.39946825967676 -19.140403561325776 M26.39946825967676 -19.140403561325776 C26.658452225961952 -19.081292161049504, 26.91743619224714 -19.022180760773228, 27.61813938623539 -18.862249829261074 M26.39946825967676 -19.140403561325776 C26.844686598957395 -19.038785380706152, 27.28990493823803 -18.937167200086524, 27.61813938623539 -18.862249829261074 M27.61813938623539 -18.862249829261074 C27.99386806495138 -18.75073552965825, 28.36959674366737 -18.639221230055426, 28.816485251460602 -18.50658706670804 M27.61813938623539 -18.862249829261074 C27.876329419147744 -18.785620382759827, 28.134519452060097 -18.70899093625858, 28.816485251460602 -18.50658706670804 M28.816485251460602 -18.50658706670804 C29.10860365124703 -18.399084795273748, 29.400722051033462 -18.291582523839455, 29.989581595147794 -18.074876768247425 M28.816485251460602 -18.50658706670804 C29.11987035485377 -18.3949385441982, 29.42325545824694 -18.283290021688362, 29.989581595147794 -18.074876768247425 M29.989581595147794 -18.074876768247425 C30.305185881103814 -17.935168112923204, 30.620790167059834 -17.79545945759898, 31.13260791279238 -17.568892924097174 M29.989581595147794 -18.074876768247425 C30.352067008489726 -17.91441522850869, 30.71455242183166 -17.75395368876996, 31.13260791279238 -17.568892924097174 M31.13260791279238 -17.568892924097174 C31.494869114741693 -17.379901487079593, 31.857130316691006 -17.190910050062012, 32.24086726407678 -16.990714730406097 M31.13260791279238 -17.568892924097174 C31.529358825584172 -17.361908227024784, 31.926109738375963 -17.1549235299524, 32.24086726407678 -16.990714730406097 M32.24086726407678 -16.990714730406097 C32.4959069186872 -16.836108193001895, 32.750946573297604 -16.68150165559769, 33.3098055736057 -16.342718045390892 M32.24086726407678 -16.990714730406097 C32.50853092322312 -16.82845544726533, 32.77619458236945 -16.666196164124568, 33.3098055736057 -16.342718045390892 M33.3098055736057 -16.342718045390892 C33.67041272965619 -16.091174103762256, 34.031019885706684 -15.839630162133624, 34.33503034457871 -15.627565626425154 M33.3098055736057 -16.342718045390892 C33.62388257419544 -16.123631525953712, 33.93795957478518 -15.904545006516532, 34.33503034457871 -15.627565626425154 M34.33503034457871 -15.627565626425154 C34.67587232453138 -15.355753217598908, 35.016714304484054 -15.083940808772661, 35.312328708501866 -14.848196188198123 M34.33503034457871 -15.627565626425154 C34.65108201624158 -15.375522828762216, 34.96713368790445 -15.123480031099279, 35.312328708501866 -14.848196188198123 M35.312328708501866 -14.848196188198123 C35.60024447340057 -14.586718708350817, 35.88816023829927 -14.325241228503513, 36.23768473676799 -14.007812326905688 M35.312328708501866 -14.848196188198123 C35.68210703656239 -14.51237329445198, 36.051885364622926 -14.176550400705834, 36.23768473676799 -14.007812326905688 M36.23768473676799 -14.007812326905688 C36.56244361822591 -13.672472118600343, 36.88720249968384 -13.337131910294996, 37.10729594296865 -13.10986736009568 M36.23768473676799 -14.007812326905688 C36.52444451207122 -13.711709315489703, 36.811204287374444 -13.415606304073716, 37.10729594296865 -13.10986736009568 M37.10729594296865 -13.10986736009568 C37.429191904980115 -12.731750046717893, 37.75108786699158 -12.353632733340104, 37.91758890812658 -12.158051136245305 M37.10729594296865 -13.10986736009568 C37.31400594457422 -12.867054030077483, 37.520715946179784 -12.624240700059286, 37.91758890812658 -12.158051136245305 M37.91758890812658 -12.158051136245305 C38.11595192977709 -11.892262758476654, 38.314314951427605 -11.626474380708002, 38.665233964640635 -11.156274872382312 M37.91758890812658 -12.158051136245305 C38.118052487758966 -11.889448202145708, 38.31851606739136 -11.620845268046113, 38.665233964640635 -11.156274872382312 M38.665233964640635 -11.156274872382312 C38.92680508820915 -10.75443138489963, 39.188376211777666 -10.35258789741695, 39.34715887860425 -10.108655082055241 M38.665233964640635 -11.156274872382312 C38.80891779071268 -10.935537931026019, 38.95260161678471 -10.714800989669728, 39.34715887860425 -10.108655082055241 M39.34715887860425 -10.108655082055241 C39.5657155753927 -9.720585535641957, 39.78427227218116 -9.332515989228673, 39.960561474273504 -9.019496659696287 M39.34715887860425 -10.108655082055241 C39.4828767853704 -9.86767419566365, 39.61859469213655 -9.62669330927206, 39.960561474273504 -9.019496659696287 M39.960561474273504 -9.019496659696287 C40.127882115105514 -8.67205176892042, 40.295202755937524 -8.324606878144552, 40.50292114880834 -7.893275190886684 M39.960561474273504 -9.019496659696287 C40.07749160709144 -8.776688736995805, 40.194421739909366 -8.533880814295323, 40.50292114880834 -7.893275190886684 M40.50292114880834 -7.893275190886684 C40.60908726626836 -7.631042828178186, 40.71525338372838 -7.368810465469688, 40.972009229970325 -6.734618561215508 M40.50292114880834 -7.893275190886684 C40.60210370524534 -7.648292358923025, 40.701286261682334 -7.403309526959365, 40.972009229970325 -6.734618561215508 M40.972009229970325 -6.734618561215508 C41.05127115429837 -6.495894273812082, 41.13053307862641 -6.257169986408657, 41.36589813421488 -5.548287939305138 M40.972009229970325 -6.734618561215508 C41.05359400372815 -6.488898221425364, 41.135178777485976 -6.243177881635221, 41.36589813421488 -5.548287939305138 M41.36589813421488 -5.548287939305138 C41.46229468939294 -5.180686095879911, 41.558691244570994 -4.813084252454684, 41.68296928754556 -4.339158212148133 M41.36589813421488 -5.548287939305138 C41.43268460153108 -5.293602193990427, 41.499471068847285 -5.0389164486757165, 41.68296928754556 -4.339158212148133 M41.68296928754556 -4.339158212148133 C41.77310700217696 -3.876320098128642, 41.86324471680835 -3.4134819841091506, 41.921919776581774 -3.1121979531509023 M41.68296928754556 -4.339158212148133 C41.776342202215176 -3.859708029692156, 41.86971511688479 -3.3802578472361797, 41.921919776581774 -3.1121979531509023 M41.921919776581774 -3.1121979531509023 C41.961689203078244 -2.8037541346058488, 42.00145862957471 -2.4953103160607957, 42.08176770250937 -1.872449005199798 M41.921919776581774 -3.1121979531509023 C41.983366658987435 -2.635628067272008, 42.04481354139309 -2.1590581813931133, 42.08176770250937 -1.872449005199798 M42.08176770250937 -1.872449005199798 C42.10162703500223 -1.5631238714588194, 42.12148636749509 -1.2537987377178408, 42.16185621591342 -0.6250057626472757 M42.08176770250937 -1.872449005199798 C42.10842055219253 -1.457309357591551, 42.13507340187569 -1.042169709983304, 42.16185621591342 -0.6250057626472757 M42.16185621591342 -0.6250057626472757 C42.16185621591342 -0.3230624250764842, 42.16185621591342 -0.02111908750569269, 42.16185621591342 0.625005762647271 M42.16185621591342 -0.6250057626472757 C42.16185621591342 -0.25124604485410407, 42.16185621591342 0.12251367293906756, 42.16185621591342 0.625005762647271 M42.16185621591342 0.625005762647271 C42.137004042583946 1.0120984225670444, 42.112151869254475 1.3991910824868177, 42.08176770250937 1.8724490051997846 M42.16185621591342 0.625005762647271 C42.132243544735076 1.086247019167837, 42.10263087355674 1.5474882756884032, 42.08176770250937 1.8724490051997846 M42.08176770250937 1.8724490051997846 C42.01897348824817 2.35946853088944, 41.956179273986976 2.846488056579096, 41.921919776581774 3.1121979531508885 M42.08176770250937 1.8724490051997846 C42.049308375431266 2.1241971361984033, 42.016849048353166 2.375945267197022, 41.921919776581774 3.1121979531508885 M41.921919776581774 3.1121979531508885 C41.84359167331682 3.514396208765916, 41.76526357005188 3.916594464380944, 41.68296928754556 4.339158212148129 M41.921919776581774 3.1121979531508885 C41.83364272878385 3.5654819362325685, 41.74536568098593 4.018765919314249, 41.68296928754556 4.339158212148129 M41.68296928754556 4.339158212148129 C41.61724910503545 4.589777751366467, 41.551528922525335 4.8403972905848045, 41.36589813421489 5.548287939305125 M41.68296928754556 4.339158212148129 C41.59824743491647 4.662239354906039, 41.513525582287386 4.985320497663949, 41.36589813421489 5.548287939305125 M41.36589813421489 5.548287939305125 C41.265652731941685 5.850211119016184, 41.16540732966848 6.152134298727243, 40.972009229970325 6.734618561215495 M41.36589813421489 5.548287939305125 C41.245789939016525 5.910034686600492, 41.12568174381816 6.271781433895858, 40.972009229970325 6.734618561215495 M40.972009229970325 6.734618561215495 C40.85719893956431 7.018202198224308, 40.7423886491583 7.301785835233121, 40.50292114880834 7.893275190886679 M40.972009229970325 6.734618561215495 C40.805343383169024 7.146286425079643, 40.63867753636773 7.557954288943792, 40.50292114880834 7.893275190886679 M40.50292114880834 7.893275190886679 C40.303307595884554 8.307777004578742, 40.103694042960775 8.722278818270809, 39.960561474273504 9.019496659696284 M40.50292114880834 7.893275190886679 C40.367071011815156 8.175370907080314, 40.23122087482197 8.457466623273948, 39.960561474273504 9.019496659696284 M39.960561474273504 9.019496659696284 C39.80039316156875 9.303891717703948, 39.64022484886399 9.588286775711612, 39.34715887860425 10.108655082055236 M39.960561474273504 9.019496659696284 C39.8317596699065 9.24819730594687, 39.70295786553951 9.476897952197458, 39.34715887860425 10.108655082055236 M39.34715887860425 10.108655082055236 C39.20302638837096 10.330081292046405, 39.05889389813767 10.551507502037575, 38.66523396464064 11.156274872382301 M39.34715887860425 10.108655082055236 C39.17252504281075 10.376939549584993, 38.99789120701724 10.645224017114748, 38.66523396464064 11.156274872382301 M38.66523396464064 11.156274872382301 C38.47082079684871 11.416770805819548, 38.27640762905678 11.677266739256792, 37.91758890812658 12.158051136245302 M38.66523396464064 11.156274872382301 C38.42095450956252 11.483587087870815, 38.1766750544844 11.810899303359326, 37.91758890812658 12.158051136245302 M37.91758890812658 12.158051136245302 C37.71798308960487 12.39251948857373, 37.51837727108316 12.626987840902162, 37.10729594296866 13.10986736009567 M37.91758890812658 12.158051136245302 C37.67671502358051 12.440995307145421, 37.435841139034444 12.72393947804554, 37.10729594296866 13.10986736009567 M37.10729594296866 13.10986736009567 C36.89989974382196 13.324020963259256, 36.69250354467526 13.538174566422844, 36.23768473676799 14.007812326905684 M37.10729594296866 13.10986736009567 C36.85095934030282 13.37455594797462, 36.59462273763699 13.639244535853571, 36.23768473676799 14.007812326905684 M36.23768473676799 14.007812326905684 C36.00493451926826 14.219189916205647, 35.772184301768526 14.430567505505607, 35.31232870850189 14.848196188198111 M36.23768473676799 14.007812326905684 C35.922448582587236 14.294101461441057, 35.60721242840649 14.580390595976432, 35.31232870850189 14.848196188198111 M35.31232870850189 14.848196188198111 C35.00260198789362 15.095195005709016, 34.69287526728536 15.342193823219922, 34.33503034457871 15.627565626425152 M35.31232870850189 14.848196188198111 C35.01543888463911 15.08495792215866, 34.71854906077633 15.321719656119209, 34.33503034457871 15.627565626425152 M34.33503034457871 15.627565626425152 C33.99157712362891 15.86714372550943, 33.6481239026791 16.10672182459371, 33.30980557360571 16.34271804539089 M34.33503034457871 15.627565626425152 C34.11601617146232 15.780340432620402, 33.89700199834592 15.933115238815653, 33.30980557360571 16.34271804539089 M33.30980557360571 16.34271804539089 C32.9679152556416 16.549973965311253, 32.6260249376775 16.757229885231613, 32.24086726407678 16.990714730406093 M33.30980557360571 16.34271804539089 C32.998765266869505 16.531272507210105, 32.68772496013331 16.719826969029324, 32.24086726407678 16.990714730406093 M32.24086726407678 16.990714730406093 C31.838798459466357 17.20047376823399, 31.43672965485593 17.41023280606189, 31.132607912792388 17.56889292409717 M32.24086726407678 16.990714730406093 C31.931367407748272 17.15218060720856, 31.62186755141976 17.313646484011024, 31.132607912792388 17.56889292409717 M31.132607912792388 17.56889292409717 C30.767009192979504 17.730732632257638, 30.401410473166617 17.892572340418106, 29.989581595147804 18.07487676824742 M31.132607912792388 17.56889292409717 C30.851107169250582 17.69350495284026, 30.56960642570878 17.81811698158335, 29.989581595147804 18.07487676824742 M29.989581595147804 18.07487676824742 C29.568970660947212 18.229665480118094, 29.14835972674662 18.384454191988763, 28.816485251460616 18.506587066708033 M29.989581595147804 18.07487676824742 C29.64171607285457 18.20289449608497, 29.293850550561338 18.330912223922518, 28.816485251460616 18.506587066708033 M28.816485251460616 18.506587066708033 C28.461515228473196 18.611940306255025, 28.10654520548578 18.717293545802022, 27.618139386235413 18.86224982926107 M28.816485251460616 18.506587066708033 C28.346011624708233 18.64622116956168, 27.875537997955853 18.78585527241533, 27.618139386235413 18.86224982926107 M27.618139386235413 18.86224982926107 C27.202527730039016 18.95711047766838, 26.78691607384262 19.05197112607569, 26.399468259676766 19.140403561325773 M27.618139386235413 18.86224982926107 C27.257149195337107 18.944643484652463, 26.896159004438804 19.027037140043856, 26.399468259676766 19.140403561325773 M26.399468259676766 19.140403561325773 C26.04296970431555 19.198039483068985, 25.686471148954332 19.2556754048122, 25.16547965284788 19.3399052695533 M26.399468259676766 19.140403561325773 C26.115062739854068 19.18638404017296, 25.830657220031366 19.232364519020148, 25.16547965284788 19.3399052695533 M25.16547965284788 19.3399052695533 C24.873387338566726 19.368083063819597, 24.581295024285577 19.396260858085896, 23.9212442896239 19.45993515863156 M25.16547965284788 19.3399052695533 C24.678528084189065 19.38688090173687, 24.191576515530254 19.43385653392044, 23.9212442896239 19.45993515863156 M23.9212442896239 19.45993515863156 C23.558847556016808 19.47155651651589, 23.196450822409716 19.483177874400216, 22.671875000000004 19.5 M23.9212442896239 19.45993515863156 C23.50581596058631 19.473257136561607, 23.090387631548722 19.48657911449165, 22.671875000000004 19.5 M22.671875000000004 19.5 C22.671875000000004 19.5, 22.671875 19.5, 22.671875 19.5 M22.671875000000004 19.5 C22.671875000000004 19.5, 22.671875 19.5, 22.671875 19.5 M22.671875 19.5 C12.285583727895006 19.5, 1.899292455790011 19.5, -22.671874999999996 19.5 M22.671875 19.5 C7.023137668844795 19.5, -8.62559966231041 19.5, -22.671874999999996 19.5 M-22.671874999999996 19.5 C-23.09998166557057 19.486271452494226, -23.528088331141145 19.47254290498845, -23.921244289623893 19.45993515863156 M-22.671874999999996 19.5 C-23.048967753068695 19.487907369375606, -23.426060506137393 19.475814738751207, -23.921244289623893 19.45993515863156 M-23.921244289623893 19.45993515863156 C-24.17429062704367 19.43552408279342, -24.42733696446345 19.41111300695528, -25.16547965284787 19.3399052695533 M-23.921244289623893 19.45993515863156 C-24.41538018321873 19.412266463261822, -24.909516076813567 19.36459776789209, -25.16547965284787 19.3399052695533 M-25.16547965284787 19.3399052695533 C-25.440996731399444 19.295361804959935, -25.71651380995102 19.25081834036657, -26.39946825967676 19.140403561325773 M-25.16547965284787 19.3399052695533 C-25.617329349643345 19.26685371472214, -26.069179046438823 19.19380215989098, -26.39946825967676 19.140403561325773 M-26.39946825967676 19.140403561325773 C-26.653134521645054 19.08250589235857, -26.906800783613345 19.02460822339136, -27.618139386235388 18.862249829261074 M-26.39946825967676 19.140403561325773 C-26.692571805630926 19.07350458964112, -26.985675351585094 19.00660561795647, -27.618139386235388 18.862249829261074 M-27.618139386235388 18.862249829261074 C-28.084326125300574 18.723888052170658, -28.55051286436576 18.585526275080237, -28.81648525146059 18.506587066708043 M-27.618139386235388 18.862249829261074 C-27.97246025500854 18.757089255277396, -28.32678112378169 18.65192868129372, -28.81648525146059 18.506587066708043 M-28.81648525146059 18.506587066708043 C-29.085994209559725 18.407405278814064, -29.355503167658863 18.30822349092008, -29.989581595147797 18.074876768247425 M-28.81648525146059 18.506587066708043 C-29.158991496171023 18.380541602561586, -29.501497740881458 18.254496138415128, -29.989581595147797 18.074876768247425 M-29.989581595147797 18.074876768247425 C-30.314420487157513 17.931080226758088, -30.63925937916723 17.78728368526875, -31.13260791279238 17.568892924097174 M-29.989581595147797 18.074876768247425 C-30.22348021923394 17.971336785720652, -30.457378843320086 17.86779680319388, -31.13260791279238 17.568892924097174 M-31.13260791279238 17.568892924097174 C-31.423105504329914 17.41734051666463, -31.713603095867445 17.26578810923209, -32.24086726407678 16.990714730406097 M-31.13260791279238 17.568892924097174 C-31.392593750652853 17.433258479014242, -31.652579588513326 17.29762403393131, -32.24086726407678 16.990714730406097 M-32.24086726407678 16.990714730406097 C-32.4799771435944 16.845764916276895, -32.71908702311202 16.700815102147693, -33.309805573605686 16.3427180453909 M-32.24086726407678 16.990714730406097 C-32.50316182272096 16.831710227542075, -32.765456381365134 16.672705724678053, -33.309805573605686 16.3427180453909 M-33.309805573605686 16.3427180453909 C-33.66052131744577 16.098073924727913, -34.01123706128586 15.853429804064925, -34.33503034457871 15.627565626425156 M-33.309805573605686 16.3427180453909 C-33.52735020700615 16.190968326486136, -33.744894840406616 16.039218607581372, -34.33503034457871 15.627565626425156 M-34.33503034457871 15.627565626425156 C-34.67851326495891 15.353647137886336, -35.021996185339106 15.079728649347514, -35.312328708501866 14.848196188198125 M-34.33503034457871 15.627565626425156 C-34.70535434218799 15.332242093067205, -35.075678339797264 15.036918559709253, -35.312328708501866 14.848196188198125 M-35.312328708501866 14.848196188198125 C-35.67173730899556 14.521790806660219, -36.03114590948926 14.195385425122314, -36.237684736767974 14.007812326905697 M-35.312328708501866 14.848196188198125 C-35.672828044581664 14.520800229460205, -36.03332738066146 14.193404270722283, -36.237684736767974 14.007812326905697 M-36.237684736767974 14.007812326905697 C-36.439963409398594 13.798942990026704, -36.64224208202921 13.590073653147714, -37.107295942968655 13.109867360095677 M-36.237684736767974 14.007812326905697 C-36.457351225038245 13.78098864281255, -36.67701771330852 13.554164958719403, -37.107295942968655 13.109867360095677 M-37.107295942968655 13.109867360095677 C-37.38479795820972 12.783897702681536, -37.66229997345078 12.457928045267396, -37.917588908126575 12.158051136245307 M-37.107295942968655 13.109867360095677 C-37.348410070801705 12.826640985760438, -37.589524198634756 12.543414611425199, -37.917588908126575 12.158051136245307 M-37.917588908126575 12.158051136245307 C-38.14784778011667 11.849525224793354, -38.37810665210677 11.5409993133414, -38.665233964640635 11.156274872382316 M-37.917588908126575 12.158051136245307 C-38.10620667686557 11.90532050956729, -38.29482444560456 11.65258988288927, -38.665233964640635 11.156274872382316 M-38.665233964640635 11.156274872382316 C-38.85777896839633 10.860474041040597, -39.05032397215203 10.564673209698876, -39.34715887860425 10.108655082055249 M-38.665233964640635 11.156274872382316 C-38.82894409501151 10.904772149807348, -38.992654225382374 10.653269427232381, -39.34715887860425 10.108655082055249 M-39.34715887860425 10.108655082055249 C-39.56586760909841 9.720315584402394, -39.784576339592576 9.33197608674954, -39.960561474273504 9.019496659696289 M-39.34715887860425 10.108655082055249 C-39.57452533491511 9.70494291552505, -39.80189179122597 9.30123074899485, -39.960561474273504 9.019496659696289 M-39.960561474273504 9.019496659696289 C-40.146169280232684 8.6340780792512, -40.33177708619186 8.248659498806113, -40.50292114880834 7.893275190886686 M-39.960561474273504 9.019496659696289 C-40.11978552717125 8.688864507005146, -40.279009580069 8.358232354314003, -40.50292114880834 7.893275190886686 M-40.50292114880834 7.893275190886686 C-40.657486470208326 7.511495858711527, -40.81205179160831 7.129716526536368, -40.972009229970325 6.73461856121551 M-40.50292114880834 7.893275190886686 C-40.64571014799389 7.540583602260893, -40.78849914717943 7.187892013635101, -40.972009229970325 6.73461856121551 M-40.972009229970325 6.73461856121551 C-41.122053244245876 6.282709896484693, -41.27209725852142 5.830801231753876, -41.36589813421488 5.5482879393051325 M-40.972009229970325 6.73461856121551 C-41.119022839276425 6.291836993423205, -41.266036448582526 5.849055425630901, -41.36589813421488 5.5482879393051325 M-41.36589813421488 5.5482879393051325 C-41.47264316878844 5.141222858885533, -41.579388203361994 4.734157778465933, -41.68296928754556 4.339158212148136 M-41.36589813421488 5.5482879393051325 C-41.435246032026186 5.283834349381609, -41.50459392983748 5.019380759458085, -41.68296928754556 4.339158212148136 M-41.68296928754556 4.339158212148136 C-41.734929617360486 4.072352900368072, -41.78688994717542 3.805547588588008, -41.921919776581774 3.112197953150904 M-41.68296928754556 4.339158212148136 C-41.76391380166403 3.9235252397788836, -41.84485831578251 3.507892267409631, -41.921919776581774 3.112197953150904 M-41.921919776581774 3.112197953150904 C-41.957103824856624 2.839317422607392, -41.99228787313147 2.56643689206388, -42.08176770250937 1.872449005199809 M-41.921919776581774 3.112197953150904 C-41.96653234847622 2.7661916552863364, -42.011144920370675 2.4201853574217687, -42.08176770250937 1.872449005199809 M-42.08176770250937 1.872449005199809 C-42.11312949465596 1.3839637777337281, -42.14449128680254 0.8954785502676471, -42.16185621591342 0.6250057626472781 M-42.08176770250937 1.872449005199809 C-42.10116798924954 1.570273879592076, -42.120568275989704 1.2680987539843431, -42.16185621591342 0.6250057626472781 M-42.16185621591342 0.6250057626472781 C-42.16185621591342 0.19119432093328448, -42.16185621591342 -0.24261712078070918, -42.16185621591342 -0.6250057626472687 M-42.16185621591342 0.6250057626472781 C-42.16185621591342 0.3149398068960052, -42.16185621591342 0.004873851144732266, -42.16185621591342 -0.6250057626472687 M-42.16185621591342 -0.6250057626472687 C-42.14369570452711 -0.9078703863899077, -42.125535193140806 -1.1907350101325467, -42.08176770250937 -1.8724490051997822 M-42.16185621591342 -0.6250057626472687 C-42.14186876953787 -0.9363263735227461, -42.12188132316232 -1.2476469843982234, -42.08176770250937 -1.8724490051997822 M-42.08176770250937 -1.8724490051997822 C-42.04643424135017 -2.14648835256944, -42.011100780190965 -2.4205276999390977, -41.921919776581774 -3.112197953150895 M-42.08176770250937 -1.8724490051997822 C-42.04351337473015 -2.169142017283927, -42.00525904695093 -2.4658350293680718, -41.921919776581774 -3.112197953150895 M-41.921919776581774 -3.112197953150895 C-41.83905253986193 -3.53770369971061, -41.75618530314209 -3.963209446270325, -41.68296928754556 -4.339158212148126 M-41.921919776581774 -3.112197953150895 C-41.845986918948846 -3.502097128680852, -41.77005406131591 -3.8919963042108097, -41.68296928754556 -4.339158212148126 M-41.68296928754556 -4.339158212148126 C-41.60816560925959 -4.624417057571782, -41.53336193097362 -4.909675902995438, -41.36589813421489 -5.548287939305123 M-41.68296928754556 -4.339158212148126 C-41.57349540875051 -4.756629558272847, -41.46402152995547 -5.174100904397568, -41.36589813421489 -5.548287939305123 M-41.36589813421489 -5.548287939305123 C-41.24267953171302 -5.919402737822542, -41.11946092921116 -6.29051753633996, -40.97200922997033 -6.734618561215485 M-41.36589813421489 -5.548287939305123 C-41.25171233974398 -5.892197359215808, -41.137526545273076 -6.2361067791264935, -40.97200922997033 -6.734618561215485 M-40.97200922997033 -6.734618561215485 C-40.83935745767243 -7.062271003438862, -40.706705685374516 -7.389923445662238, -40.50292114880834 -7.893275190886676 M-40.97200922997033 -6.734618561215485 C-40.7870741847244 -7.191411698448791, -40.602139139478474 -7.648204835682096, -40.50292114880834 -7.893275190886676 M-40.50292114880834 -7.893275190886676 C-40.32977536538557 -8.252816114890337, -40.156629581962804 -8.612357038893995, -39.960561474273504 -9.019496659696282 M-40.50292114880834 -7.893275190886676 C-40.331180829986174 -8.249897637575057, -40.159440511164014 -8.606520084263437, -39.960561474273504 -9.019496659696282 M-39.960561474273504 -9.019496659696282 C-39.72520743675773 -9.437391585486111, -39.48985339924196 -9.85528651127594, -39.34715887860425 -10.108655082055243 M-39.960561474273504 -9.019496659696282 C-39.81868797629856 -9.271407421600278, -39.67681447832363 -9.523318183504275, -39.34715887860425 -10.108655082055243 M-39.34715887860425 -10.108655082055243 C-39.08572012934476 -10.510295207051787, -38.82428138008526 -10.91193533204833, -38.66523396464064 -11.156274872382308 M-39.34715887860425 -10.108655082055243 C-39.16635352743015 -10.38642065449352, -38.985548176256046 -10.664186226931797, -38.66523396464064 -11.156274872382308 M-38.66523396464064 -11.156274872382308 C-38.48669090758307 -11.395506303232345, -38.30814785052549 -11.634737734082382, -37.91758890812659 -12.158051136245302 M-38.66523396464064 -11.156274872382308 C-38.37606338719249 -11.543737102181286, -38.086892809744334 -11.931199331980261, -37.91758890812659 -12.158051136245302 M-37.91758890812659 -12.158051136245302 C-37.73241058692938 -12.375572129268518, -37.54723226573217 -12.593093122291734, -37.10729594296866 -13.10986736009567 M-37.91758890812659 -12.158051136245302 C-37.69197029409333 -12.423075598351595, -37.466351680060065 -12.688100060457888, -37.10729594296866 -13.10986736009567 M-37.10729594296866 -13.10986736009567 C-36.82025878213109 -13.406256794849634, -36.53322162129353 -13.702646229603598, -36.237684736767996 -14.007812326905677 M-37.10729594296866 -13.10986736009567 C-36.81567055403012 -13.41099451706442, -36.524045165091586 -13.71212167403317, -36.237684736767996 -14.007812326905677 M-36.237684736767996 -14.007812326905677 C-35.96815477638941 -14.252592305549545, -35.69862481601082 -14.497372284193414, -35.31232870850189 -14.848196188198107 M-36.237684736767996 -14.007812326905677 C-36.004227867806804 -14.219831678365964, -35.77077099884561 -14.431851029826248, -35.31232870850189 -14.848196188198107 M-35.31232870850189 -14.848196188198107 C-35.00018396763855 -15.097123312516214, -34.68803922677521 -15.346050436834322, -34.33503034457872 -15.627565626425149 M-35.31232870850189 -14.848196188198107 C-34.94549637663365 -15.140735211044705, -34.57866404476542 -15.433274233891304, -34.33503034457872 -15.627565626425149 M-34.33503034457872 -15.627565626425149 C-34.05050815158784 -15.82603599148836, -33.76598595859697 -16.024506356551573, -33.309805573605715 -16.342718045390885 M-34.33503034457872 -15.627565626425149 C-34.081233584569226 -15.804603259523105, -33.82743682455973 -15.981640892621062, -33.309805573605715 -16.342718045390885 M-33.309805573605715 -16.342718045390885 C-32.935994342798885 -16.569324610264616, -32.56218311199205 -16.795931175138342, -32.24086726407679 -16.99071473040609 M-33.309805573605715 -16.342718045390885 C-33.057762641443915 -16.495507952036043, -32.80571970928212 -16.6482978586812, -32.24086726407679 -16.99071473040609 M-32.24086726407679 -16.99071473040609 C-32.017488271124215 -17.107251407948375, -31.794109278171636 -17.223788085490664, -31.132607912792388 -17.56889292409717 M-32.24086726407679 -16.99071473040609 C-31.817388006293424 -17.211643587940262, -31.393908748510057 -17.432572445474435, -31.132607912792388 -17.56889292409717 M-31.132607912792388 -17.56889292409717 C-30.74423910666206 -17.74081227401976, -30.355870300531734 -17.912731623942346, -29.989581595147804 -18.07487676824742 M-31.132607912792388 -17.56889292409717 C-30.867594318429486 -17.686206580972666, -30.60258072406658 -17.80352023784816, -29.989581595147804 -18.07487676824742 M-29.989581595147804 -18.07487676824742 C-29.66184486610717 -18.195486914099487, -29.334108137066536 -18.316097059951552, -28.81648525146062 -18.506587066708033 M-29.989581595147804 -18.07487676824742 C-29.54496567796814 -18.23849953575402, -29.100349760788475 -18.402122303260622, -28.81648525146062 -18.506587066708033 M-28.81648525146062 -18.506587066708033 C-28.475915427978617 -18.60766640263001, -28.13534560449661 -18.708745738551983, -27.618139386235413 -18.862249829261067 M-28.81648525146062 -18.506587066708033 C-28.423902369024898 -18.623103605505353, -28.031319486589172 -18.739620144302677, -27.618139386235413 -18.862249829261067 M-27.618139386235413 -18.862249829261067 C-27.166661305423304 -18.965296755036622, -26.715183224611195 -19.068343680812173, -26.399468259676766 -19.140403561325773 M-27.618139386235413 -18.862249829261067 C-27.29071941085254 -18.936981302027192, -26.963299435469665 -19.011712774793317, -26.399468259676766 -19.140403561325773 M-26.399468259676766 -19.140403561325773 C-25.92035774712077 -19.21786243343831, -25.44124723456478 -19.295321305550846, -25.165479652847882 -19.3399052695533 M-26.399468259676766 -19.140403561325773 C-26.006174965166498 -19.20398817114714, -25.612881670656233 -19.26757278096851, -25.165479652847882 -19.3399052695533 M-25.165479652847882 -19.3399052695533 C-24.737146666809807 -19.38122603757061, -24.30881368077173 -19.422546805587917, -23.921244289623903 -19.45993515863156 M-25.165479652847882 -19.3399052695533 C-24.714357598762 -19.383424471557316, -24.263235544676117 -19.426943673561333, -23.921244289623903 -19.45993515863156 M-23.921244289623903 -19.45993515863156 C-23.579643973543 -19.470889615883596, -23.238043657462097 -19.48184407313563, -22.671875000000007 -19.5 M-23.921244289623903 -19.45993515863156 C-23.636333219842648 -19.46907170209369, -23.351422150061396 -19.47820824555582, -22.671875000000007 -19.5 M-22.671875000000007 -19.5 C-22.671875000000004 -19.5, -22.671875000000004 -19.5, -22.671875 -19.5 M-22.671875000000007 -19.5 C-22.671875000000007 -19.5, -22.671875000000004 -19.5, -22.671875 -19.5" stroke="#9370DB" stroke-width="1.3" fill="none" stroke-dasharray="0 0" style=""/></g><g class="label" style="" transform="translate(-29.796875, -12)"><rect/><foreignObject width="59.59375" height="24"><div xmlns="http://www.w3.org/1999/xhtml" style="display: table-cell; white-space: nowrap; line-height: 1.5; max-width: 200px; text-align: center;"><span class="nodeLabel"><p>operator</p></span></div></foreignObject></g></g><g class="node default" id="my-svg-flowchart-IDX-1" data-look="classic" transform="translate(215.8828125, 444.9296875)"><path d="M0,14.76668031109292 a90.1875,14.76668031109292 0,0,0 180.375,0 a90.1875,14.76668031109292 0,0,0 -180.375,0 l0,77.76668031109293 a90.1875,14.76668031109292 0,0,0 180.375,0 l0,-77.76668031109293" class="basic label-container outer-path" style="" transform="translate(-90.1875, -53.65002046663938)"/><g class="label" style="" transform="translate(-82.6875, -14)"><rect/><foreignObject width="165.375" height="48"><div xmlns="http://www.w3.org/1999/xhtml" style="display: table-cell; white-space: nowrap; line-height: 1.5; max-width: 200px; text-align: center;"><span class="nodeLabel"><p>IDX GetStockSummary<br />one call, ~963 rows</p></span></div></foreignObject></g></g><g class="node default" id="my-svg-flowchart-YF-2" data-look="classic" transform="translate(415.8984375, 444.9296875)"><path d="M0,12.226976625367225 a59.828125,12.226976625367225 0,0,0 119.65625,0 a59.828125,12.226976625367225 0,0,0 -119.65625,0 l0,75.22697662536723 a59.828125,12.226976625367225 0,0,0 119.65625,0 l0,-75.22697662536723" class="basic label-container outer-path" style="" transform="translate(-59.828125, -49.84046493805084)"/><g class="label" style="" transform="translate(-52.328125, -14)"><rect/><foreignObject width="104.65625" height="48"><div xmlns="http://www.w3.org/1999/xhtml" style="display: table-cell; white-space: nowrap; line-height: 1.5; max-width: 200px; text-align: center;"><span class="nodeLabel"><p>Yahoo OHLCV<br />cached, polite</p></span></div></foreignObject></g></g><g class="node default" id="my-svg-flowchart-SC-3" data-look="classic" transform="translate(975.671875, 185)"><rect class="basic label-container" style="" x="-78.03125" y="-39" width="156.0625" height="78"/><g class="label" style="" transform="translate(-48.03125, -24)"><rect/><foreignObject width="96.0625" height="48"><div xmlns="http://www.w3.org/1999/xhtml" style="display: table-cell; white-space: nowrap; line-height: 1.5; max-width: 200px; text-align: center;"><span class="nodeLabel"><p>screen.py<br />23 categories</p></span></div></foreignObject></g></g><g class="node default" id="my-svg-flowchart-GATES-4" data-look="classic" transform="translate(859.2109375, 444.9296875)"><polygon points="97.9296875,0 195.859375,-97.9296875 97.9296875,-195.859375 0,-97.9296875" class="label-container" transform="translate(-97.4296875, 97.9296875)"/><g class="label" style="" transform="translate(-58.9296875, -24)"><rect/><foreignObject width="117.859375" height="48"><div xmlns="http://www.w3.org/1999/xhtml" style="display: table-cell; white-space: nowrap; line-height: 1.5; max-width: 200px; text-align: center;"><span class="nodeLabel"><p>2 required gates<br />breakout + liquid</p></span></div></foreignObject></g></g><g class="node default" id="my-svg-flowchart-RANK-5" data-look="classic" transform="translate(1112.1328125, 444.9296875)"><rect class="basic label-container" style="" x="-104.9921875" y="-39" width="209.984375" height="78"/><g class="label" style="" transform="translate(-74.9921875, -24)"><rect/><foreignObject width="149.984375" height="48"><div xmlns="http://www.w3.org/1999/xhtml" style="display: table-cell; white-space: nowrap; line-height: 1.5; max-width: 200px; text-align: center;"><span class="nodeLabel"><p>4 rank signals<br />obv, macd, hh, rsi div</p></span></div></foreignObject></g></g><g class="node default" id="my-svg-flowchart-TT-6" data-look="classic" transform="translate(1368.125, 444.9296875)"><rect class="basic label-container" style="" x="-101" y="-39" width="202" height="78"/><g class="label" style="" transform="translate(-71, -24)"><rect/><foreignObject width="142" height="48"><div xmlns="http://www.w3.org/1999/xhtml" style="display: table-cell; white-space: nowrap; line-height: 1.5; max-width: 200px; text-align: center;"><span class="nodeLabel"><p>trading-tools<br />indicators, ATR plan</p></span></div></foreignObject></g></g><g class="node default" id="my-svg-flowchart-JV-7" data-look="classic" transform="translate(730.171875, 729.859375)"><rect class="basic label-container" style="" x="-92.7109375" y="-39" width="185.421875" height="78"/><g class="label" style="" transform="translate(-62.7109375, -24)"><rect/><foreignObject width="125.421875" height="48"><div xmlns="http://www.w3.org/1999/xhtml" style="display: table-cell; white-space: nowrap; line-height: 1.5; max-width: 200px; text-align: center;"><span class="nodeLabel"><p>jev.py<br />5 typed questions</p></span></div></foreignObject></g></g><g class="node default" id="my-svg-flowchart-DB-8" data-look="classic" transform="translate(849.2109375, 970.799259185791)"><path d="M0,14.963366286947359 a93.1796875,14.963366286947359 0,0,0 186.359375,0 a93.1796875,14.963366286947359 0,0,0 -186.359375,0 l0,77.96336628694736 a93.1796875,14.963366286947359 0,0,0 186.359375,0 l0,-77.96336628694736" class="basic label-container outer-path" style="" transform="translate(-93.1796875, -53.94504943042104)"/><g class="label" style="" transform="translate(-85.6796875, -14)"><rect/><foreignObject width="171.359375" height="48"><div xmlns="http://www.w3.org/1999/xhtml" style="display: table-cell; white-space: nowrap; line-height: 1.5; max-width: 200px; text-align: center;"><span class="nodeLabel"><p>trading-jev.db<br />decision, idx_daily, scan</p></span></div></foreignObject></g></g><g class="node default" id="my-svg-flowchart-RP-9" data-look="classic" transform="translate(840.171875, 1161.739143371582)"><rect class="basic label-container" style="" x="-129.15625" y="-39" width="258.3125" height="78"/><g class="label" style="" transform="translate(-99.15625, -24)"><rect/><foreignObject width="198.3125" height="48"><div xmlns="http://www.w3.org/1999/xhtml" style="display: table-cell; white-space: nowrap; line-height: 1.5; max-width: 200px; text-align: center;"><span class="nodeLabel"><p>reports<br />analyze, watchlist, accuracy</p></span></div></foreignObject></g></g><g class="node default" id="my-svg-flowchart-SKIP-31" data-look="classic" transform="translate(1124.5546875, 729.859375)"><rect class="basic label-container" style="" x="-95.3671875" y="-27" width="190.734375" height="54"/><g class="label" style="" transform="translate(-65.3671875, -12)"><rect/><foreignObject width="130.734375" height="24"><div xmlns="http://www.w3.org/1999/xhtml" style="display: table-cell; white-space: nowrap; line-height: 1.5; max-width: 200px; text-align: center;"><span class="nodeLabel"><p>never reaches Jev</p></span></div></foreignObject></g></g></g></g></g><defs><filter id="my-svg-drop-shadow" height="130%" width="130%"><feDropShadow dx="4" dy="4" stdDeviation="0" flood-opacity="0.06" flood-color="#000000"/></filter></defs><defs><filter id="my-svg-drop-shadow-small" height="150%" width="150%"><feDropShadow dx="2" dy="2" stdDeviation="0" flood-opacity="0.06" flood-color="#000000"/></filter></defs></svg>